<svg xmlns="http://www.w3.org/2000/svg" width="256" height="256"><path fill="#1976D2" fill-opacity=".016" fill-rule="evenodd" d="M0 128.004v128.004l128.25-.254 128.25-.254.254-127.75L257.008 0H0zm.485.496c0 70.4.119 99.053.265 63.672s.146-92.98 0-128S.485 58.1.485 128.5"/><path fill="#1976D2" fill-opacity=".255" fill-rule="evenodd" d="M104.655 10.597C69.072 17.026 36.43 41.484 20.034 74c-9.132 18.111-12.451 32.318-12.5 53.5-.037 16.304 1.076 23.865 5.545 37.665 13.618 42.051 52.056 74.503 95.798 80.881 12.681 1.849 34.291.75 46.197-2.349 43.237-11.255 76.113-43.918 86.983-86.421 12.298-48.083-6.848-98.85-48.101-127.546-13.204-9.184-30.916-16.468-46.837-19.26-10.455-1.834-31.969-1.769-42.464.127M106 26.965c-25.844 5.547-47 18.957-62.232 39.449-30.583 41.142-26.493 97.743 9.696 134.176 50.189 50.528 134.873 36.127 165.699-28.177C245.89 116.66 218.031 50.315 159.5 30.326c-16.01-5.468-37.419-6.812-53.5-3.361m8.061 12.055c-19.558 2.734-40.544 13.773-53.59 28.188-27.329 30.199-31.316 74.096-9.857 108.527 17.812 28.579 52.788 45.419 85.76 41.289 43.795-5.484 76.807-40.275 79.322-83.598 2.934-50.51-35.008-92.51-85.696-94.865-5.225-.243-12.398-.036-15.939.459M116 46.706c-4.652 1.701-9 8.276-9 13.61 0 3.255-.276 3.517-5.835 5.544-12.606 4.596-22.246 12.822-27.064 23.094-2.26 4.818-2.601 6.862-2.601 15.57 0 9.303.235 10.501 3.274 16.671C77.805 127.349 87.506 138 90.081 138c.505 0 .919.45.919 1s-.523 1-1.162 1c-2.102 0-16.803 9.141-18.816 11.699-2.655 3.376-3.469 8.418-2.051 12.713 1.494 4.528 11.827 15.224 19.336 20.016 3.194 2.039 8.594 4.753 12 6.031 5.951 2.235 6.214 2.481 6.743 6.303.688 4.974 3.125 8.764 7.254 11.282 4.662 2.843 20.77 2.818 25.455-.039 4.1-2.499 7.232-7.553 7.237-11.677.004-2.783.465-3.322 3.754-4.388 27.9-9.039 41.283-35.912 29.697-59.63-3.076-6.297-11.45-14.186-18.957-17.859l-5.51-2.695 7.916-4.871C174.244 100.516 177 97.237 177 91.291c0-5.659-2.45-9.807-9.061-15.342-4.862-4.07-17.218-10.94-19.689-10.946-.803-.002-1.251-1.523-1.254-4.253-.004-5.153-2.774-10.034-7.237-12.755-2.678-1.634-4.951-1.974-12.759-1.912-5.225.041-10.175.322-11 .623m-.237 3.859C112.134 52.534 110 56.894 110 62.339c0 4.263-.135 4.464-3.43 5.082-5.643 1.058-16.807 7.19-21.797 11.972-6.963 6.671-10.022 13.379-10.541 23.107-.344 6.459-.015 9.089 1.706 13.653 4.318 11.446 13.68 19.908 26.962 24.371l6.6 2.218.305 4.629c.167 2.546-.082 4.629-.554 4.629s-2.409-1.629-4.305-3.619c-4.242-4.455-9.04-6.633-12.704-5.767-1.508.357-6.294 2.727-10.634 5.267-12.649 7.403-13.537 12.762-3.846 23.229 8.046 8.691 20.401 16.513 28.988 18.353 3.004.643 3.25.996 3.25 4.666 0 9.285 4.736 12.871 17 12.871 12.25 0 17-3.588 17-12.839 0-3.694.213-3.978 3.43-4.582 5.834-1.094 17.348-7.493 22.481-12.492 2.691-2.621 6.061-7.072 7.49-9.891 4.937-9.743 5.138-24.298.464-33.461-4.488-8.797-17.053-17.767-29.115-20.784-3.239-.811-4.75-1.707-4.751-2.82 0-1.338.903-1.568 5.028-1.283 4.462.31 5.84-.138 12.25-3.978C171.61 98.681 174 96.082 174 91.034c0-3.516-.674-4.84-4.598-9.036-5.488-5.867-11.832-10.088-19.652-13.078L144 66.722v-4.41c0-5.534-2.176-9.834-5.967-11.795-3.934-2.034-18.49-2.003-22.27.048m22.066 13.98c.189 4.272.772 7.455 1.366 7.455 1.293 0 .624-12.579-.742-13.952-.604-.607-.833 1.771-.624 6.497m29.905 26.229c.341 2.444-.398 3.218-7.135 7.476-8.197 5.18-11.896 5.863-15.714 2.899-1.312-1.018-3.397-2.384-4.635-3.035L138 96.93v10.035c0 12.584 1.819 13.388 2.212.978l.288-9.057 4 3.029c2.2 1.666 5.203 3.042 6.674 3.057 1.6.017 5.819-2.081 10.5-5.222 7.915-5.31 9.863-8.229 7.051-10.563-1.115-.926-1.3-.629-.991 1.587m-56.279 8.681c-2.539 2.538-3.457 8.808-1.47 10.036.61.376.756-.538.383-2.401-.495-2.473-.046-3.566 2.515-6.127 1.714-1.714 3.117-3.307 3.117-3.54 0-1.199-2.378-.136-4.545 2.032m-22.513 26.89c2.731 3.452 9.841 7.596 17.368 10.123 8.026 2.694 10.141 3.07 9.261 1.647-.3-.486-2.495-1.176-4.877-1.534-5.35-.802-15.023-5.304-19.694-9.166-1.925-1.592-2.851-2.073-2.058-1.07M170.28 133c4.505 6.504 6.116 14.443 4.613 22.728-1.299 7.16-4.422 12.662-10.223 18.008-5.503 5.073-10.49 7.675-19.349 10.096l-6.821 1.865-.307 5.886c-.452 8.672-1.684 9.626-11.934 9.234-6.843-.261-8.006-.096-6.593.933.968.705 4.638 1.25 8.414 1.25 9.199 0 11.12-1.617 11.716-9.863.412-5.684.649-6.204 3.075-6.738 20.149-4.434 32.558-16.422 33.866-32.716.645-8.027-1.568-15.957-5.77-20.683l-3.111-3.5zM138 151.559c0 6.785.357 10.338 1 9.941.554-.342 1-4.882 1-10.174v-9.556l2.75 1.674 2.75 1.675-2.361-2.06c-4.556-3.974-5.139-3.01-5.139 8.5m-49.136 22.702c2.944 3.251 13.859 9.024 21.068 11.143 6.342 1.864 6.352 1.865 5.638.709-.301-.487-2.221-1.2-4.267-1.584-5.272-.989-16.091-6.059-20.803-9.748-3.443-2.695-3.671-2.767-1.636-.52"/><path fill="#1976D2" fill-opacity=".385" fill-rule="evenodd" d="M115 9.559c-1.375.236-5.65.934-9.5 1.551-47.465 7.607-87.644 47.632-96.017 95.65-1.902 10.903-1.902 31.577 0 42.48 3.834 21.989 14.889 43.671 30.813 60.435 25.434 26.775 62.693 40.56 98.406 36.408 28.351-3.296 51.879-14.621 71.811-34.565C233 189.016 244.992 159.969 244.992 128c0-55.966-38.297-103.78-92.992-116.099-8.102-1.825-31.424-3.301-37-2.342m-1.5 15.568c-23.582 2.946-49.823 16.769-64.581 34.018-18.59 21.73-26.693 44.754-25.642 72.855.777 20.75 5.792 36.498 16.928 53.145 37.022 55.349 114.705 62.375 160.498 14.517 20.568-21.496 30.523-47.958 28.997-77.084-1.306-24.927-10.707-46.852-27.891-65.045-23.57-24.955-55.159-36.546-88.309-32.406m-6 15.516c-7.838 1.657-19.763 6.511-28.319 11.526-8.673 5.085-24.811 21.786-30.06 31.109-19.436 34.525-14.692 76.724 11.8 104.957 19.257 20.521 42.371 29.88 70.34 28.481 70.415-3.523 108.6-83.727 67.232-141.216-13.293-18.474-34.044-31.396-56.927-35.449-8.304-1.471-25.743-1.168-34.066.592m7.462 6.607C110.13 49.686 106 56.059 106 61.078c0 2.321-.721 2.917-5.75 4.752-20.976 7.653-32.866 25.85-29.352 44.921 1.926 10.453 7.821 20.075 15.507 25.31 3.605 2.455 4.54 3.939 2.484 3.939-2.529 0-17.499 10.034-19.139 12.827-2.735 4.66-2.284 11.141 1.098 15.773 6.442 8.823 18.295 17.875 29.297 22.373 5.119 2.093 5.699 2.643 6.237 5.917 1.567 9.537 8.205 14.066 20.618 14.066 12.451 0 18.885-4.396 20.51-14.014.586-3.469 1.032-3.871 6.486-5.86 7.659-2.793 17.133-9.182 21.479-14.486 1.909-2.33 4.72-6.904 6.247-10.166 2.482-5.301 2.776-7.043 2.777-16.43.001-9.588-.254-11.021-2.935-16.5-3.602-7.359-11.488-15.159-19.091-18.882l-5.668-2.775 7.347-4.534c9.569-5.905 11.644-7.897 13.023-12.499 1.837-6.132-.082-10.559-7.646-17.634C163.954 71.961 152.353 65 149.236 65c-.538 0-1.263-2.138-1.612-4.75-1.414-10.609-7.63-15.19-20.662-15.228-5.859-.017-8.532.479-12 2.228m2.363 3.209c-4.198 1.826-6.282 5.215-6.734 10.951-.204 2.587-.621 4.954-.928 5.26-.306.306-3.444 1.566-6.973 2.799-7.897 2.76-16.709 8.496-20.538 13.368-5.326 6.778-6.504 10.119-6.935 19.663-.534 11.822 1.771 18.35 9.147 25.904 5.702 5.841 8.755 7.692 19.01 11.526l6.873 2.57.127 5.251c.069 2.888-.231 5.25-.667 5.25-.436-.001-3.078-2.138-5.871-4.751-4.571-4.276-5.54-4.746-9.707-4.711-3.742.032-6.115.957-12.386 4.83-8.265 5.103-9.764 6.85-9.708 11.315.048 3.786 1.705 6.541 7.548 12.552 6.02 6.194 14.365 11.745 22.101 14.7 8.021 3.065 8.858 3.598 8.525 5.436-.574 3.161 1.885 9.557 4.45 11.574 2.236 1.759 4.038 2.054 12.553 2.054 9.655 0 10.026-.084 12.865-2.923 2.444-2.444 2.923-3.735 2.923-7.875v-4.951l7.078-2.276c13.634-4.384 23.997-13.213 27.969-23.83 8.666-23.162-3.594-43.88-29.946-50.602-3.887-.991-4.601-1.552-4.601-3.608 0-1.685.462-2.305 1.5-2.014 5.36 1.505 9.686.443 17.109-4.197 9.736-6.085 11.346-7.899 11.346-12.792 0-3.392-.725-4.644-5.478-9.473-5.074-5.154-16.566-12.072-22.732-13.685-1.981-.518-2.245-1.229-2.245-6.046 0-6.625-2.372-10.182-7.795-11.688-5.167-1.435-14.099-1.226-17.88.419M119 55.291c-2.27 1.145-2.527 1.924-2.794 8.477-.282 6.933-.399 7.239-3 7.814-14.191 3.135-26.409 11.156-30.845 20.249-2.871 5.886-3.014 17.396-.305 24.61 3.9 10.387 14.144 18.413 27.944 21.896l5.5 1.388.283 11.137c.155 6.126-.119 11.138-.611 11.138-1.477 0-8.408-4.938-12.672-9.03-6.061-5.815-8.072-5.919-16.946-.87-4.149 2.361-7.789 5.066-8.089 6.011-1.099 3.462.887 6.979 7.421 13.142 8.06 7.604 14.286 11.384 23.607 14.332l7.007 2.217.504 6.182c.662 8.123 1.903 9.016 12.532 9.016 10.237 0 11.464-1.03 11.464-9.622v-5.965l5.421-1.137c6.512-1.366 15.105-5.436 20.007-9.478 11.273-9.291 15.325-25.507 9.607-38.447-3.902-8.831-16.052-17.122-29.785-20.326l-5.25-1.224V108.4c0-4.62.255-8.4.567-8.4s1.999 1.09 3.75 2.422c5.577 4.244 7.372 4.13 15.995-1.019 8.764-5.232 11.394-8.216 9.824-11.149-3.116-5.821-16.39-14.63-25.911-17.193L140 71.923v-6.027c0-7.287-.977-9.344-5.128-10.791-4.237-1.477-12.774-1.377-15.872.186m-5.75 45.936c-1.237 1.321-2.25 3.561-2.25 4.977 0 2.707 3.375 7.747 4.462 6.664.349-.347.5-3.649.336-7.337l-.298-6.706zm26.779 51.023.03 9.25 2.97-3.266c3.821-4.199 4.103-9.822.657-13.06-1.273-1.196-2.623-2.174-3-2.174-.378 0-.673 4.162-.657 9.25"/><path fill="#1976D2" fill-opacity=".217" fill-rule="evenodd" d="M122.728 23.722c1.775.221 4.925.224 7 .008 2.074-.217.622-.397-3.228-.402-3.85-.004-5.548.173-3.772.394M115.5 39.605C84.39 44.19 59.407 62.24 46.382 89.544 40.24 102.42 38.014 112.649 38.014 128c0 15.98 2.286 26.004 9.007 39.5 8.983 18.038 21.776 30.869 39.479 39.596 14.938 7.365 23.047 9.23 40 9.2 16.783-.029 25.23-1.928 39.236-8.823 22.457-11.054 39.441-31.399 46.308-55.473 3.054-10.702 3.768-29.885 1.526-40.949-6.916-34.135-31.716-60.47-65.07-69.101-7.766-2.009-26.327-3.328-33-2.345m-1.578 7.669C109.18 50.469 106 55.574 106 59.99c0 3.482-.243 3.765-4.25 4.946-11.418 3.366-23.058 12.881-27.969 22.862-3.05 6.198-3.28 7.372-3.268 16.684.017 12.87 2.498 18.715 11.963 28.179C89.224 139.41 89.67 140 88.018 140c-1.368 0-14.03 7.767-16.779 10.293-3.678 3.378-4.728 9.138-2.656 14.565 3.33 8.717 19.772 22.286 32.562 26.871 4.284 1.537 4.686 1.973 5.177 5.632.587 4.376 2.857 7.937 7.063 11.077 2.392 1.786 4.213 2.062 13.615 2.062s11.223-.276 13.615-2.062c4.218-3.149 6.477-6.704 7.07-11.127.514-3.834.776-4.091 5.779-5.668 11.464-3.614 23.441-13.941 28.376-24.468 2.397-5.115 2.66-6.811 2.659-17.175-.002-10.183-.283-12.072-2.456-16.5-3.201-6.52-12.254-15.56-19.014-18.985l-5.364-2.719 7.417-4.795c10.147-6.559 12.102-8.856 12.683-14.904.379-3.946.021-5.708-1.74-8.556-3.12-5.048-12.267-12.243-20.651-16.245-7.091-3.384-7.128-3.422-7.64-7.962-.582-5.167-2.909-8.807-7.724-12.084C137.143 45.298 135.417 45 127 45c-8.438 0-10.145.297-13.078 2.274M190 45.378c0 .207.787.995 1.75 1.75 1.586 1.243 1.621 1.208.378-.378-1.307-1.666-2.128-2.195-2.128-1.372M52.462 54.25 47.5 59.5l5.25-4.962c2.888-2.73 5.25-5.092 5.25-5.25 0-.747-.926.084-5.538 4.962M200 54.5c1.292 1.375 2.574 2.5 2.849 2.5s-.557-1.125-1.849-2.5-2.574-2.5-2.849-2.5.557 1.125 1.849 2.5m29.079 57.083c.048 1.165.285 1.402.604.605.289-.722.253-1.585-.079-1.917s-.568.258-.525 1.312m-207 6c.048 1.165.285 1.402.604.605.289-.722.253-1.585-.079-1.917s-.568.258-.525 1.312M230.158 120c0 1.375.227 1.938.504 1.25.278-.687.278-1.812 0-2.5-.277-.687-.504-.125-.504 1.25m0 16c0 1.375.227 1.938.504 1.25.278-.687.278-1.812 0-2.5-.277-.687-.504-.125-.504 1.25m-208.079 2.583c.048 1.165.285 1.402.604.605.289-.722.253-1.585-.079-1.917s-.568.258-.525 1.312m207 6c.048 1.165.285 1.402.604.605.289-.722.253-1.585-.079-1.917s-.568.258-.525 1.312m-22.207 49.167c-1.243 1.586-1.208 1.621.378.378.963-.755 1.75-1.543 1.75-1.75 0-.823-.821-.294-2.128 1.372m-154.914 7.5c2.452 2.613 4.59 4.75 4.75 4.75.751 0-.043-.898-4.458-5.042L47.5 196.5zm71.81 31.475c1.797.222 4.497.218 6-.01 1.503-.229.032-.411-3.268-.405s-4.529.192-2.732.415"/></svg>