<svg xmlns="http://www.w3.org/2000/svg" width="256" height="256"><path fill="#1976D2" fill-opacity=".016" fill-rule="evenodd" d="M0 128.004v128.004l128.25-.254 128.25-.254.254-127.75L257.008 0H0zm.485.496c0 70.4.119 99.053.265 63.672s.146-92.98 0-128S.485 58.1.485 128.5"/><path fill="#1976D2" fill-opacity=".255" fill-rule="evenodd" d="M114 22.118c-17.459 1.997-37.488 10.068-51.858 20.896-35.512 26.759-50.716 74.031-37.46 116.462 12.835 41.08 48.941 70.42 91.63 74.459 52.253 4.944 99.713-28.419 113.418-79.729 2.293-8.585 2.593-11.612 2.593-26.206s-.3-17.621-2.593-26.206c-9.915-37.121-37.657-65.667-74.07-76.22-8.227-2.384-24.33-4.702-30.871-4.444-1.809.071-6.664.516-10.789.988m0 14.481C92.321 40.587 76.888 48.185 62.657 61.88 44.061 79.773 34.692 101.902 34.661 128c-.032 26.485 9.693 48.886 29.121 67.079 27.873 26.101 68.268 32.219 102.718 15.557 25.663-12.412 44.25-36.183 49.92-63.844 2.037-9.936 2.033-27.678-.008-37.584-5.664-27.488-23.731-50.873-49.124-63.585-12.404-6.209-22.923-8.754-37.788-9.143-7.15-.188-14.125-.134-15.5.119m-4.5 12.998c-28.856 6.43-52.887 29.449-60.683 58.129-1.633 6.009-2.107 10.612-2.088 20.274.03 15.312 2.113 23.99 8.949 37.274 3.8 7.384 6.553 11.043 13.785 18.327 10.5 10.575 18.872 15.865 32.537 20.562 8.932 3.069 10.338 3.266 23.5 3.294 15.862.032 22.257-1.27 34.411-7.011 29.188-13.786 46.207-40.469 46.207-72.446 0-23.401-8.393-42.738-25.493-58.734-8.467-7.921-17.764-13.369-29.625-17.362-8.271-2.784-11.117-3.241-22-3.532-8.759-.235-14.595.132-19.5 1.225m3.887 8.687c-2.86 2.621-3.691 4.23-4.111 7.962-.515 4.564-.643 4.715-5.339 6.275-6.761 2.246-15.926 8.414-19.837 13.352-6.804 8.592-8.915 20.651-5.581 31.88 1.745 5.876 7.958 14.243 13.002 17.51 1.9 1.23 3.432 2.462 3.404 2.737s-3.238 2.063-7.134 3.973c-15.668 7.683-17.476 14.946-6.61 26.561 6.604 7.06 13.108 11.588 21.6 15.038 5.452 2.214 5.753 2.524 6.443 6.625.524 3.117 1.719 5.223 4.332 7.642l3.608 3.338 10.398-.338c9.696-.316 10.576-.518 13.047-2.992 1.458-1.458 3.188-4.767 3.844-7.352 1.139-4.485 1.441-4.786 6.62-6.595 11.629-4.061 20.88-12.825 24.928-23.618 2.956-7.878 2.57-20.582-.835-27.511-2.982-6.068-9.745-12.716-16.774-16.487l-5.536-2.971 6.822-4.062c9.658-5.75 11.822-8.328 11.822-14.082 0-3.251-.688-5.634-2.267-7.847-3.202-4.49-13.506-11.982-19.317-14.045-4.3-1.528-4.916-2.097-4.916-4.544 0-4.113-2.376-9.097-5.514-11.565C137.082 55.276 135.471 55 126.85 55c-9.773 0-9.918.035-13.463 3.284m5.613-.63c-.825.328-2.737 1.749-4.25 3.158-2.25 2.096-2.75 3.421-2.75 7.282v4.72l-5.611 1.765c-6.832 2.149-15.902 7.87-19.812 12.497-6.769 8.01-8.785 19.92-5.187 30.644 3.217 9.59 13.934 18.673 26.36 22.342 4.161 1.228 4.25 1.347 4.25 5.626v4.372l-3-2.218c-1.65-1.22-3-2.572-3-3.004 0-1.319-5.726-3.838-8.721-3.838-1.552 0-6.233 1.997-10.403 4.439-12.144 7.108-12.75 11.704-2.896 21.955 6.513 6.776 14.605 12.098 22.388 14.726 5.028 1.698 5.143 1.825 5.681 6.332.379 3.179 1.385 5.436 3.253 7.305 2.352 2.352 3.664 2.753 10.054 3.076 11.066.558 15.641-2.358 16.611-10.59.502-4.268.764-4.599 4.533-5.724 11.816-3.527 21.021-10.77 25.658-20.188 2.865-5.82 3.238-7.53 3.207-14.708-.042-9.815-2.541-15.912-9.166-22.359-4.681-4.555-14.376-9.673-20.449-10.794-2.534-.468-3.75-1.226-3.75-2.338 0-1.341.847-1.579 4.559-1.284 3.859.307 5.511-.214 10.75-3.39C166.785 101.714 169 99.309 169 94.765c0-3.275-.72-4.577-4.75-8.587-5.413-5.386-11.818-9.381-18-11.226-4.238-1.265-4.25-1.283-4.25-6.095 0-3.915-.549-5.44-2.908-8.08-2.766-3.095-3.289-3.265-10.75-3.486-4.313-.128-8.517.036-9.342.363m17.987 14.142.488 6.704.317-5.896c.174-3.242-.045-6.259-.488-6.704-.442-.445-.585 2.208-.317 5.896m26.43 23.31c.114 2.98-12.683 11.165-16.614 10.626-1.484-.204-2.47-.002-2.191.449 1.31 2.119 7.203.603 13.375-3.441 6.241-4.089 8.238-6.915 6.274-8.879-.569-.569-.895-.089-.844 1.245m-50.243 7.208c-2.272 2.42-2.844 7.086-1.187 9.686.659 1.033.773.356.366-2.177-.494-3.076-.163-4.104 2.028-6.295 1.44-1.44 2.619-2.823 2.619-3.073 0-1.145-1.846-.248-3.826 1.859m24.03 7.436.203 8.75.338-8.338.339-8.337 2.708 1.647 2.708 1.647-2.361-2.06c-1.298-1.132-2.761-2.059-3.25-2.059s-.797 3.938-.685 8.75M94.5 128c.995 1.1 2.035 2 2.31 2s-.315-.9-1.31-2-2.035-2-2.31-2 .315.9 1.31 2m4.94 3.454c3.187 2.537 19.506 8.039 17.06 5.753-.55-.514-3.198-1.468-5.884-2.119s-6.737-2.083-9-3.181c-2.582-1.253-3.393-1.421-2.176-.453m68.587 5.796c2.81 6.19 2.629 15.825-.417 22.25-4.235 8.931-13.896 16.078-25.134 18.593L137 179.318v5.27c0 7.549-1.416 8.642-10.67 8.236-6.1-.268-7.082-.107-5.664.926 2.432 1.771 12.402 1.591 15.062-.272 1.713-1.2 2.237-2.713 2.473-7.14l.299-5.618 5.235-1.336c17.674-4.509 27.608-15.575 27.59-30.735-.006-5.365-.552-8.209-2.187-11.399-1.198-2.338-2.373-4.25-2.609-4.25-.237 0 .437 1.912 1.498 4.25m-30.821 11.474.205 9.776.334-8.75c.183-4.812.57-8.75.86-8.75.289 0 1.397.466 2.461 1.035 1.064.57 1.934.806 1.934.526s-1.35-1.208-3-2.061l-3-1.551zM92 168.378c0 .207.787.995 1.75 1.75 1.586 1.243 1.621 1.208.378-.378-1.307-1.666-2.128-2.195-2.128-1.372m5.047 4.178c1.572 1.894 12.657 6.538 16.727 7.007 3.28.379 3.137.258-1.193-1.006-2.706-.79-7.529-2.729-10.718-4.31s-5.356-2.341-4.816-1.691"/><path fill="#1976D2" fill-opacity=".385" fill-rule="evenodd" d="M107.655 23.531c-40.011 7.563-71.924 36.311-83.093 74.852C8.016 155.48 41.873 215.2 99.571 230.69c8.92 2.395 11.657 2.665 26.929 2.662 14.118-.003 18.276-.356 24.531-2.081 25.708-7.091 45.327-20 60.012-39.489 7.122-9.451 13.816-22.857 17.617-35.282 2.603-8.507 2.753-10.067 2.753-28.5s-.15-19.993-2.753-28.5c-11.577-37.84-40.005-65.379-77.025-74.615-10.936-2.728-33.099-3.41-43.98-1.354m8.219 12.457C78.524 40.623 48.469 66.09 37.379 102.5c-2.513 8.254-2.741 10.368-2.741 25.5 0 15.064.234 17.266 2.69 25.297 11.423 37.354 41.918 62.686 80.172 66.597 27.397 2.801 55.099-7.227 74.614-27.011 24.704-25.044 32.93-60.73 21.755-94.383-3.675-11.066-8.134-19.186-15.917-28.98-18.652-23.471-52.318-37.225-82.078-33.532M115 49.057c-32.858 4.857-59.239 29.662-66.564 62.586-2.311 10.386-1.567 28.945 1.557 38.857 8.618 27.34 29.341 47.329 56.629 54.622 10.112 2.702 27.782 2.965 37.619.559 54.535-13.336 79.099-75.569 48.225-122.178C175.995 58.637 144.607 44.68 115 49.057m1.27 6.426c-3.789 1.647-7.044 6.488-7.91 11.767-.339 2.063-1.087 3.75-1.663 3.75s-4.346 1.63-8.377 3.622c-16.873 8.337-25.037 24.129-20.901 40.429 1.911 7.532 6.804 15.16 12.561 19.582l4.079 3.133-7.74 4.367C77.832 146.922 74 151.376 74 156.452c0 7.538 12.978 20.595 26.534 26.695 6.346 2.856 7.403 3.702 7.899 6.325.895 4.732 4.005 9.033 7.85 10.858 4.662 2.212 16.697 2.248 21.3.064 4.006-1.902 7.417-6.972 7.417-11.027 0-2.592.554-3.094 5.25-4.762 11.503-4.085 20.921-12.369 25.545-22.468 3.277-7.158 3.652-18.883.86-26.915-2.259-6.499-9.029-13.945-16.914-18.602l-5.76-3.401 7.526-4.691C169.838 103.336 172 100.31 172 93.843c0-3.905-.517-4.762-6.25-10.355-5.377-5.246-12.569-9.731-19-11.849-1.256-.413-1.751-1.645-1.754-4.358-.005-4.932-2.885-9.526-7.279-11.611-4.376-2.076-16.851-2.185-21.447-.187m.586 4.033C113.944 61.098 112 65.523 112 70.57c0 2.88-.389 3.355-3.25 3.975-5.041 1.091-14.386 6.132-18.857 10.171-6.557 5.923-9.278 12.284-9.32 21.784-.028 6.287.465 9.117 2.303 13.214 3.991 8.897 15.785 17.962 25.874 19.888 3.2.611 3.25.706 3.25 6.146v5.526l-4.957-4.637c-6.612-6.185-10.351-6.297-20.102-.603-7.387 4.315-8.941 6.175-8.941 10.703 0 6.713 13.835 19.143 26.739 24.024 6.42 2.429 7.241 3.033 7.25 5.34.019 4.567 2.129 8.909 5.07 10.429 1.762.912 5.704 1.47 10.376 1.47 6.807 0 7.831-.265 10.613-2.751 2.394-2.14 3.153-3.733 3.408-7.163.329-4.404.339-4.415 6.299-6.573 12.326-4.463 20.366-11.135 24.57-20.391 1.622-3.57 2.109-6.671 2.138-13.622.033-8.147-.244-9.508-2.934-14.364-4.434-8.006-12.85-14.156-23.529-17.193-4.998-1.422-6.283-2.263-6.583-4.309-.153-1.042 1.074-1.355 4.94-1.26 4.522.111 6.069-.454 12.814-4.678 8.852-5.544 10.711-8.649 8.437-14.092-1.867-4.468-8.88-10.296-16.608-13.8-3.575-1.622-7.103-3.257-7.84-3.634-.772-.396-1.471-2.785-1.651-5.646-.257-4.079-.865-5.453-3.427-7.742-2.848-2.545-3.773-2.779-10.848-2.742-4.757.025-8.752.593-10.378 1.476m2.441 3.941c-1.784 1.288-2.259 2.753-2.5 7.706l-.297 6.117-5.249 1.339c-20.957 5.348-30.743 20.841-24.584 38.918 3.054 8.962 13.125 16.849 25.17 19.71l5.163 1.226v9.764c0 6.718-.36 9.763-1.156 9.763-1.303 0-6.501-3.73-12.097-8.68-2.064-1.826-4.779-3.32-6.032-3.32s-5.19 1.915-8.747 4.257c-8.691 5.72-8.632 7.793.472 16.472 6.865 6.545 15.21 11.399 22.946 13.347l4.614 1.161v5.227c0 7.341 1.578 8.536 11.272 8.536 6.735 0 7.794-.257 9.171-2.223.865-1.234 1.557-4.28 1.557-6.851v-4.629l6.588-1.783c16.021-4.337 26.263-16.192 26.363-30.514.056-8.078-1.464-12.242-6.523-17.869-4.776-5.312-10.989-8.799-20.678-11.607l-5.75-1.666v-14.93l3.732 2.536c4.697 3.192 6.476 3.177 12.18-.099C162.286 101.13 166 98.027 166 96.103c0-2.167-5.802-8.322-10.844-11.505-2.013-1.27-6.471-3.335-9.908-4.588L139 77.732v-5.255c0-7.89-1.986-9.806-10.63-10.254-5.129-.266-7.428.047-9.073 1.234M114.2 104.2c-1.902 1.902-1.44 7.273.8 9.3 1.979 1.791 2 1.747 2-4.345 0-6.176-.57-7.185-2.8-4.955m24.832 45.55.031 7.75 2.469-2.806c2.987-3.396 3.291-8.639.639-11.039-1.006-.91-2.131-1.655-2.5-1.655s-.657 3.488-.639 7.75"/><path fill="#1976D2" fill-opacity=".217" fill-rule="evenodd" d="M124.762 34.707c1.244.239 3.044.23 4-.02s-.062-.446-2.262-.435-2.982.216-1.738.455m-11.949.976c.721.289 1.584.253 1.916-.079s-.258-.568-1.312-.525c-1.165.048-1.402.285-.604.604m26 0c.721.289 1.584.253 1.916-.079s-.258-.568-1.312-.525c-1.165.048-1.402.285-.604.604M107 51.043c-4.125 1.063-11.765 4.033-16.979 6.602-8.113 3.996-10.85 6.051-19.002 14.262-10.214 10.288-14.83 17.151-18.732 27.851-11.297 30.981-3.712 63.537 20.003 85.845 15.546 14.624 32.606 21.35 54.21 21.373 31.46.032 58.809-17.515 71.906-46.136 5.202-11.368 6.95-19.649 6.933-32.84-.018-14.552-1.888-22.484-8.413-35.687-10.514-21.274-30.682-36.974-53.788-41.871-9.659-2.048-26.978-1.76-36.138.601m10 3.663c-4.507 1.648-9 8.259-9 13.244 0 2.063-.492 3.05-1.521 3.05-3.377 0-15.198 6.805-19.978 11.5-7.804 7.665-9.967 12.971-9.985 24.5-.015 8.937.187 9.875 3.411 15.821C83.12 128.71 90.952 137 93.324 137c.573 0-2.908 2.355-7.736 5.232C76.195 147.832 74 150.535 74 156.5c0 5.226 2.029 8.414 10.125 15.91 6.469 5.989 19.182 13.59 22.73 13.59.63 0 1.147 1.238 1.149 2.75.005 3.74 3.29 8.849 7.237 11.255 4.126 2.516 18.233 2.835 22.72.515 3.966-2.05 6.757-5.893 7.507-10.333.573-3.388 1.097-3.918 5.38-5.44 6.825-2.423 16.219-8.781 19.966-13.512 6.095-7.695 7.686-12.61 7.685-23.735 0-8.878-.297-10.561-2.641-15.002-3.223-6.106-11.879-14.483-17.548-16.983l-4.19-1.847 7.69-5.084c8.863-5.859 11.835-10.33 10.742-16.156-.918-4.897-9.769-13.314-18.993-18.062-7.11-3.66-7.423-3.973-8.029-8.017-.725-4.829-3.446-8.737-7.569-10.869-2.821-1.459-17.594-2.004-20.961-.774m75 7.794c2.987 3.025 5.657 5.5 5.932 5.5s-1.945-2.475-4.932-5.5-5.657-5.5-5.932-5.5 1.945 2.475 4.932 5.5M54.872 67.75c-1.243 1.586-1.208 1.621.378.378C56.916 66.821 57.445 66 56.622 66c-.207 0-.995.787-1.75 1.75M219.158 121c0 1.375.227 1.938.504 1.25.278-.687.278-1.812 0-2.5-.277-.687-.504-.125-.504 1.25m0 14c0 1.375.227 1.938.504 1.25.278-.687.278-1.812 0-2.5-.277-.687-.504-.125-.504 1.25M55.5 189c.995 1.1 2.035 2 2.31 2s-.315-.9-1.31-2-2.035-2-2.31-2 .315.9 1.31 2m135.962 5.25-4.962 5.25 5.25-4.962c4.878-4.612 5.709-5.538 4.962-5.538-.158 0-2.52 2.363-5.25 5.25M64 197.378c0 .207.787.995 1.75 1.75 1.586 1.243 1.621 1.208.378-.378-1.307-1.666-2.128-2.195-2.128-1.372m48.75 23.284c.688.278 1.813.278 2.5 0 .688-.277.125-.504-1.25-.504s-1.937.227-1.25.504m25.063.021c.721.289 1.584.253 1.916-.079s-.258-.568-1.312-.525c-1.165.048-1.402.285-.604.604"/></svg>